<?xml version="1.0" encoding="UTF-8" standalone="no"?>
<!DOCTYPE svg PUBLIC "-//W3C//DTD SVG 1.1//EN" "http://www.w3.org/Graphics/SVG/1.1/DTD/svg11.dtd">
<svg width="100%" height="100%" viewBox="0 0 4910 1500" version="1.1" xmlns="http://www.w3.org/2000/svg" xmlns:xlink="http://www.w3.org/1999/xlink" xml:space="preserve" xmlns:serif="http://www.serif.com/" style="fill-rule:evenodd;clip-rule:evenodd;stroke-linejoin:round;stroke-miterlimit:1.41421;">
    <rect x="0" y="0" width="4910" height="1499.6" style="fill:rgb(43,55,75);fill-rule:nonzero;"/>
    <circle cx="4655.2" cy="251.2" r="222.6" style="fill:rgb(228,37,40);"/>
    <circle cx="4138.7" cy="251.2" r="222.6" style="fill:rgb(152,152,152);"/>
    <circle cx="4655.2" cy="767.7" r="222.6" style="fill:rgb(222,222,222);"/>
    <path d="M238.5,615.2L22.6,615.2L22.6,537.3L548,537.3L548,615.2L331.1,615.2L331.1,1247L238.4,1247L238.4,615.2L238.5,615.2ZM607.4,499.4L700.1,499.4L700.1,817.4L702.2,817.4C716.9,791.1 740.1,767.9 768.5,752.1C795.9,736.3 828.5,725.8 863.3,725.8C931.7,725.8 1041.2,767.9 1041.2,943.7L1041.2,1247L948.5,1247L948.5,954.3C948.5,872.2 918,802.7 830.6,802.7C770.6,802.7 723.2,844.8 706.4,895.4C701.1,908 700.1,921.7 700.1,939.6L700.1,1247L607.4,1247L607.4,499.4ZM1268.7,594.2C1269.8,625.8 1246.6,651.1 1209.7,651.1C1177.1,651.1 1153.9,625.8 1153.9,594.2C1153.9,561.6 1178.1,536.3 1211.8,536.3C1246.6,536.3 1268.7,561.5 1268.7,594.2ZM1165.5,1247L1165.5,737.4L1258.2,737.4L1258.2,1247L1165.5,1247ZM1385.5,896.4C1385.5,836.4 1384.4,784.8 1381.3,737.4L1462.4,737.4L1465.6,837.4L1469.8,837.4C1493,769 1548.8,725.8 1610.9,725.8C1621.4,725.8 1628.8,726.8 1637.2,729L1637.2,816.4C1627.7,814.3 1618.2,813.2 1605.6,813.2C1540.3,813.2 1494,862.7 1481.4,932.2C1479.3,944.8 1477.2,959.6 1477.2,975.4L1477.2,1247L1385.6,1247L1385.6,896.4L1385.5,896.4ZM2133.1,499.4L2133.1,1115.4C2133.1,1160.7 2134.2,1212.3 2137.3,1247L2054.1,1247L2049.9,1158.6L2047.8,1158.6C2019.4,1215.5 1957.2,1258.6 1874.1,1258.6C1750.9,1258.6 1656.1,1154.4 1656.1,999.6C1655,830.1 1760.3,725.8 1884.6,725.8C1962.5,725.8 2015.2,762.6 2038.3,803.7L2040.4,803.7L2040.4,499.4L2133.1,499.4ZM2040.5,944.8C2040.5,933.2 2039.4,917.4 2036.3,905.8C2022.6,846.8 1972.1,798.4 1902.6,798.4C1806.8,798.4 1749.9,882.6 1749.9,995.3C1749.9,1098.5 1800.4,1183.8 1900.5,1183.8C1962.6,1183.8 2019.5,1142.7 2036.3,1073.2C2039.5,1060.6 2040.5,1047.9 2040.5,1033.2L2040.5,944.8Z" style="fill:white;fill-rule:nonzero;"/>
    <path d="M2255,537.3L2346.6,537.3L2346.6,1170.1L2649.8,1170.1L2649.8,1247L2255,1247L2255,537.3ZM2825.7,594.2C2826.8,625.8 2803.6,651.1 2766.7,651.1C2734.1,651.1 2710.9,625.8 2710.9,594.2C2710.9,561.6 2735.1,536.3 2768.8,536.3C2803.6,536.3 2825.7,561.5 2825.7,594.2ZM2722.5,1247L2722.5,737.4L2815.2,737.4L2815.2,1247L2722.5,1247ZM3377.4,1173.3C3377.4,1290.2 3354.2,1361.8 3304.7,1406C3255.2,1452.3 3183.6,1467.1 3119.4,1467.1C3058.3,1467.1 2990.9,1452.4 2949.9,1425L2973.1,1354.4C3006.8,1375.5 3059.4,1394.4 3122.6,1394.4C3217.4,1394.4 3286.9,1344.9 3286.9,1216.5L3286.9,1159.6L3284.8,1159.6C3256.4,1207 3201.6,1244.9 3122.6,1244.9C2996.3,1244.9 2905.7,1137.5 2905.7,996.4C2905.7,823.7 3018.4,725.8 3135.2,725.8C3223.6,725.8 3272.1,772.1 3294.2,814.2L3296.3,814.2L3300.5,737.3L3381.6,737.3C3379.5,774.2 3377.4,815.2 3377.4,877.3L3377.4,1173.3ZM3285.8,938.5C3285.8,922.7 3284.7,909 3280.5,896.4C3263.7,842.7 3218.4,798.5 3151,798.5C3062.6,798.5 2999.4,873.3 2999.4,991.2C2999.4,1091.2 3049.9,1174.4 3150,1174.4C3206.9,1174.4 3258.5,1138.6 3278.5,1079.6C3283.8,1063.8 3285.9,1045.9 3285.9,1030.1L3285.9,938.5L3285.8,938.5ZM3478.9,499.4L3571.6,499.4L3571.6,817.4L3573.7,817.4C3588.4,791.1 3611.6,767.9 3640,752.1C3667.4,736.3 3700,725.8 3734.8,725.8C3803.2,725.8 3912.7,767.9 3912.7,943.7L3912.7,1247L3820,1247L3820,954.3C3820,872.2 3789.5,802.7 3702.1,802.7C3642.1,802.7 3594.7,844.8 3577.9,895.4C3572.6,908 3571.6,921.7 3571.6,939.6L3571.6,1247L3478.9,1247L3478.9,499.4ZM4144.4,615.2L4144.4,737.3L4277,737.3L4277,807.9L4144.3,807.9L4144.3,1082.7C4144.3,1145.9 4162.2,1181.7 4213.8,1181.7C4239.1,1181.7 4253.8,1179.6 4267.5,1175.4L4271.7,1244.9C4253.8,1252.3 4225.4,1258.6 4189.6,1258.6C4146.4,1258.6 4111.7,1243.9 4089.6,1218.6C4063.3,1191.2 4053.8,1146 4053.8,1085.9L4053.8,807.9L3974.8,807.9L3974.8,737.3L4053.8,737.3L4053.8,643.6L4144.4,615.2Z" style="fill:rgb(228,37,40);fill-rule:nonzero;"/>
</svg>
